<svg width="526" height="376" viewBox="0 0 526 376" fill="none" xmlns="http://www.w3.org/2000/svg">
<g clip-path="url(#clip0_31_2547)">
<path d="M293.038 96.3518H260.59C257.197 96.3518 254.447 99.1039 254.447 102.497V113C254.447 116.392 257.197 119.143 260.59 119.143H293.038C296.431 119.143 299.181 116.392 299.181 113V102.497C299.181 99.1039 296.431 96.3518 293.038 96.3518Z" fill="#F99247"/>
<path d="M283.042 96.3518H250.596C247.203 96.3518 244.453 99.1039 244.453 102.497V113C244.453 116.392 247.203 119.143 250.596 119.143H283.042C286.437 119.143 289.187 116.392 289.187 113V102.497C289.187 99.1039 286.437 96.3518 283.042 96.3518Z" fill="#FEC786"/>
<path d="M270.101 102.405C270.101 104.073 268.748 105.425 267.08 105.425C265.414 105.425 264.061 104.073 264.061 102.405C264.061 100.738 265.414 99.3857 267.08 99.3857C268.748 99.3857 270.101 100.738 270.101 102.405Z" fill="#E2F2F1"/>
<path d="M203.06 341.357L209.549 338.047C209.549 338.047 216.432 337.329 216.526 338.047C216.618 338.765 212.731 344.132 212.175 344.132C211.621 344.132 203.662 344.132 203.662 344.132L203.06 341.357Z" fill="#F99247"/>
<path d="M346.364 349.871L352.655 346.66C352.655 346.66 350.188 343.454 349.508 343.454C348.83 343.454 343.525 346.414 343.525 346.414L346.364 349.871Z" fill="#F99247"/>
<path d="M343.972 337.036H212.9C208.104 337.036 204.218 340.923 204.218 345.719V346.66H352.655V345.719C352.655 340.923 348.768 337.036 343.972 337.036Z" fill="#F99247"/>
<path d="M313.423 346.66H259.741L240.491 234.192H294.175L313.423 346.66Z" fill="#F99247"/>
<path d="M423.543 107.747H124.819C117.499 107.747 111.565 113.682 111.565 121.002V275.07V299.76C111.565 304.894 114.959 309.057 119.146 309.057H429.216C433.403 309.057 436.798 304.894 436.798 299.76V275.07V121.002C436.798 113.682 430.863 107.747 423.543 107.747Z" fill="#F99247"/>
<path d="M307.87 346.66H254.188L234.94 234.192H288.622L307.87 346.66Z" fill="#F7AB48"/>
<path d="M429.184 275.07V121.002C429.184 113.682 423.25 107.747 415.929 107.747H117.206C109.886 107.747 103.951 113.682 103.951 121.002V275.07H429.184Z" fill="#F7AB48"/>
<path d="M103.951 275.07V299.76C103.951 304.894 107.346 309.057 111.533 309.057H421.602C425.789 309.057 429.184 304.894 429.184 299.76V275.07H103.951Z" fill="#FEC786"/>
<path d="M421.572 268.38V121.414C421.572 117.561 418.335 114.439 414.345 114.439H118.791C114.8 114.439 111.565 117.561 111.565 121.414V268.38H421.572Z" fill="#E2F2F1"/>
<path d="M422.248 185.515H295.743V114.811L415.79 114.578L421.572 117.865L422.248 185.515Z" fill="#FEC786"/>
<path d="M421.602 309.371H111.533C107.18 309.371 103.639 305.059 103.639 299.76V121.003C103.639 113.522 109.725 107.435 117.206 107.435V108.061C110.069 108.061 104.264 113.866 104.264 121.003V299.76C104.264 304.714 107.525 308.745 111.533 308.745H421.602V309.371Z" fill="#21111D"/>
<path d="M408.435 292.246L407.928 291.881L415.332 281.577L415.839 281.942L408.435 292.246Z" fill="#21111D"/>
<path d="M408.433 297.12L407.93 296.75L415.334 286.726L415.837 287.096L408.433 297.12Z" fill="#21111D"/>
<path d="M421.884 268.692H111.565V268.068H421.258V121.414C421.258 117.74 418.157 114.751 414.345 114.751V114.127C418.501 114.127 421.884 117.396 421.884 121.414V268.692Z" fill="#21111D"/>
<path d="M346.364 349.871C346.364 344.554 342.054 340.245 336.738 340.245H207.548C202.234 340.245 197.924 344.554 197.924 349.871H346.364Z" fill="#F7AB48"/>
<path d="M253.844 318.066L253.303 317.756L256.985 311.313L257.528 311.623L253.844 318.066Z" fill="#21111D"/>
<path d="M254.46 321.771L253.921 321.455L257.252 315.78L257.791 316.096L254.46 321.771Z" fill="#21111D"/>
<path d="M294.541 185.515H168.038V113.701H294.541V185.515Z" fill="#7FC6A6"/>
<path d="M295.325 260.411H169.33V186.717H295.325V260.411Z" fill="#FFCABA"/>
<path d="M167.385 114.439H118.791C114.8 114.439 111.565 117.561 111.565 121.414V268.38H167.385V114.439Z" fill="#61A3C5"/>
<path d="M112.501 267.443H420.635V121.414C420.635 118.085 417.813 115.376 414.345 115.376H118.791C115.323 115.376 112.501 118.085 112.501 121.414V267.443ZM422.508 269.317H110.628V121.414C110.628 117.05 114.29 113.501 118.791 113.501H414.345C418.846 113.501 422.508 117.05 422.508 121.414V269.317Z" fill="#21111D"/>
<path d="M235.323 127.086C235.635 124.961 237.643 123.219 239.79 123.21C240.016 123.21 240.245 123.227 240.455 123.308C240.694 123.402 240.893 123.574 241.124 123.687C241.688 123.963 242.441 123.89 242.852 124.362C243.299 124.873 243.053 125.663 243.185 126.328C243.284 126.836 243.609 127.266 243.795 127.747C244.16 128.692 243.961 129.779 243.498 130.679C243.034 131.579 242.33 132.329 241.635 133.065C241.066 133.668 240.472 134.29 239.702 134.594C238.192 135.194 237.074 134.076 236.595 132.755C235.954 130.991 235.039 129.002 235.323 127.086Z" fill="#FEC786"/>
<path d="M226.494 136.593C226.494 136.593 222.173 148.991 221.651 150.036C221.131 151.078 218.487 155.887 219.436 161.549C220.385 167.211 237.493 169.223 237.493 169.223L237.181 130.369C237.181 130.369 229.541 129.441 226.494 136.593Z" fill="#FEC786"/>
<path d="M247.693 136.593C247.693 136.593 252.014 148.991 252.536 150.036C253.057 151.078 255.7 155.887 254.751 161.549C253.803 167.211 236.694 169.223 236.694 169.223L237.006 130.369C237.006 130.369 244.646 129.441 247.693 136.593Z" fill="#FEC786"/>
<path d="M230.815 140.615L240.654 132.312L241.735 140.218C241.735 140.218 235.235 142.007 234.987 142.007C234.739 142.007 230.815 140.615 230.815 140.615Z" fill="#FE9F73"/>
<path d="M279.188 184.311C275.442 175.571 271.529 167.182 269.836 165.942C266.135 163.227 241.703 162.979 241.703 162.979C241.703 162.979 223.935 162.055 214.557 163.689C214.557 163.689 204.193 164.089 199.01 174.826C197.682 177.578 196.183 180.897 194.689 184.311H279.188Z" fill="#FEBAC7"/>
<path d="M259.609 163.787C251.608 163.075 242.281 162.979 242.281 162.979C242.281 162.979 224.561 162.057 215.172 163.684C218.044 166.385 227.191 173.794 240.461 173.035C250.271 172.475 256.344 167.568 259.609 163.787Z" fill="#FE9F73"/>
<path d="M242.871 163.114L232.083 162.928L232.663 154.12H241.769L242.871 163.114Z" fill="#FE9F73"/>
<path d="M232.423 157.768C233.461 158.64 234.882 159.335 236.221 159.51C236.443 159.513 236.672 159.515 236.905 159.517H236.952H237.001C237.233 159.515 237.463 159.513 237.684 159.51C239.255 159.305 240.996 158.411 242.157 157.285L241.77 154.12H232.663L232.423 157.768Z" fill="#F07162"/>
<path d="M244.092 138.881C243.652 138 243.078 137.41 242.514 137.017C241.372 136.491 239.503 135.809 237.117 135.543H237.002H236.935H236.82C234.436 135.809 232.567 136.491 231.425 137.017C230.861 137.41 230.287 138 229.847 138.881C229.637 140.508 229.381 143.51 229.332 146.508C229.289 149.204 230.014 151.867 231.5 154.048C232.62 155.692 234.228 157.165 236.456 157.381C236.61 157.383 236.771 157.385 236.935 157.385H236.969H237.002C237.168 157.385 237.329 157.383 237.483 157.381C239.711 157.165 241.319 155.692 242.439 154.048C243.925 151.867 244.648 149.204 244.607 146.508C244.558 143.51 244.302 140.508 244.092 138.881Z" fill="#FE9F73"/>
<path d="M242.751 148.257C242.751 149.641 243.872 150.763 245.257 150.763C246.641 150.763 247.763 149.641 247.763 148.257C247.763 146.872 246.641 145.751 245.257 145.751C243.872 145.751 242.751 146.872 242.751 148.257Z" fill="#FE9F73"/>
<path d="M245.443 149.803C245.969 149.803 246.32 149.408 246.435 149.014C246.572 148.546 246.416 148.091 246.037 147.857C245.496 147.52 245.003 147.718 244.736 147.885C244.844 147.618 245.009 147.423 245.227 147.302C245.717 147.034 246.322 147.231 246.33 147.233C246.371 147.246 246.416 147.223 246.431 147.182C246.444 147.139 246.422 147.094 246.38 147.081C246.352 147.071 245.7 146.859 245.15 147.161C244.83 147.338 244.612 147.646 244.504 148.082L244.434 148.362L244.639 148.159C244.663 148.133 245.255 147.56 245.952 147.992C246.335 148.23 246.369 148.666 246.281 148.969C246.189 149.284 245.911 149.649 245.43 149.643C245.387 149.641 245.349 149.677 245.349 149.722C245.349 149.765 245.383 149.803 245.428 149.803H245.443Z" fill="#F07162"/>
<path d="M231.836 148.257C231.836 149.641 230.715 150.763 229.33 150.763C227.946 150.763 226.824 149.641 226.824 148.257C226.824 146.872 227.946 145.751 229.33 145.751C230.715 145.751 231.836 146.872 231.836 148.257Z" fill="#FE9F73"/>
<path d="M229.144 149.803C228.618 149.803 228.267 149.408 228.152 149.014C228.015 148.546 228.173 148.091 228.553 147.857C229.094 147.52 229.584 147.718 229.853 147.885C229.744 147.618 229.58 147.423 229.362 147.302C228.87 147.034 228.265 147.231 228.26 147.233C228.216 147.246 228.171 147.223 228.158 147.182C228.143 147.139 228.166 147.094 228.209 147.081C228.235 147.071 228.887 146.859 229.439 147.161C229.759 147.338 229.975 147.646 230.084 148.082L230.153 148.362L229.948 148.159C229.924 148.133 229.334 147.56 228.637 147.992C228.252 148.23 228.218 148.666 228.306 148.969C228.399 149.284 228.677 149.649 229.157 149.643C229.201 149.641 229.238 149.677 229.24 149.722C229.24 149.765 229.204 149.803 229.159 149.803H229.144Z" fill="#F07162"/>
<path d="M236.649 150.689C236.692 150.689 236.73 150.661 236.739 150.618C236.751 150.567 236.719 150.519 236.668 150.509C236.078 150.381 235.704 149.652 235.597 149.416C236.437 148.967 236.95 148.384 237.121 147.682C237.401 146.536 236.674 145.499 236.644 145.456C236.614 145.414 236.555 145.405 236.514 145.435C236.473 145.463 236.463 145.522 236.493 145.563C236.501 145.572 237.202 146.575 236.942 147.639C236.779 148.307 236.273 148.863 235.437 149.292L235.364 149.329L235.394 149.406C235.411 149.451 235.828 150.517 236.63 150.688L236.649 150.689Z" fill="#F07162"/>
<path d="M234.654 146.662C234.654 146.944 234.425 147.173 234.143 147.173C233.861 147.173 233.632 146.944 233.632 146.662C233.632 146.38 233.861 146.149 234.143 146.149C234.425 146.149 234.654 146.38 234.654 146.662Z" fill="black"/>
<path d="M239.933 146.761C239.933 147.043 240.162 147.272 240.444 147.272C240.728 147.272 240.957 147.043 240.957 146.761C240.957 146.48 240.728 146.25 240.444 146.25C240.162 146.25 239.933 146.48 239.933 146.761Z" fill="black"/>
<path d="M228.241 145.839C228.241 145.839 237.493 141.37 238.255 135.68L240.143 132.943L239.307 136.1C239.307 136.1 241.859 145.35 245.824 145.803C245.824 145.803 249.29 133.239 239.345 130.745C229.398 128.248 227.446 138.09 228.241 145.839Z" fill="#FEC786"/>
<path d="M209.831 184.382L209.222 184.241L211.535 174.193L212.143 174.333L209.831 184.382Z" fill="#21111D"/>
<path d="M263.423 184.382L261.108 174.333L261.717 174.193L264.031 184.241L263.423 184.382Z" fill="#21111D"/>
<path d="M240.033 182.329L239.912 181.93C247.07 179.753 254.631 169.887 254.706 169.787L255.037 170.039C254.962 170.14 247.322 180.114 240.033 182.329Z" fill="#21111D"/>
<path d="M221.534 173.265L217.463 170.58L217.691 170.233L221.764 172.917L221.534 173.265Z" fill="#21111D"/>
<path d="M221.513 176.18L218.553 173.674L218.822 173.357L221.784 175.863L221.513 176.18Z" fill="#21111D"/>
<path d="M235.419 151.71C235.468 151.7 238.52 151.635 238.52 151.635C238.52 151.635 238.133 152.895 237.001 152.923C235.866 152.952 235.419 151.71 235.419 151.71Z" fill="#FBFDFC"/>
<path d="M242.556 145.666C242.509 145.666 242.462 145.649 242.422 145.617C241.132 144.522 239.289 145.125 239.27 145.131C239.161 145.168 239.044 145.108 239.007 145.001C238.969 144.892 239.028 144.774 239.136 144.736C239.221 144.708 241.22 144.05 242.691 145.3C242.779 145.373 242.791 145.504 242.715 145.593C242.674 145.642 242.616 145.666 242.556 145.666Z" fill="#FEC786"/>
<path d="M232.126 145.627C232.066 145.627 232.006 145.601 231.964 145.548C231.891 145.46 231.906 145.328 231.994 145.255C233.497 144.043 235.477 144.75 235.562 144.78C235.669 144.819 235.725 144.939 235.686 145.046C235.646 145.155 235.526 145.21 235.419 145.17C235.4 145.165 233.572 144.517 232.255 145.58C232.218 145.612 232.171 145.627 232.126 145.627Z" fill="#FEC786"/>
<path d="M229.909 150.695C229.909 150.695 230.83 157.477 236.456 157.381L229.909 150.695Z" fill="#FE9F73"/>
<path d="M244.154 150.507C244.154 150.507 243.232 157.477 237.607 157.381L241.735 147.826L244.154 150.507Z" fill="#FE9F73"/>
<path d="M243.466 131.699C243.444 131.699 243.423 131.695 243.403 131.689C239.105 130.309 236.356 130.369 235.1 130.526C235.056 130.532 235.028 130.536 235.011 130.536C234.893 130.541 234.799 130.457 234.791 130.342C234.784 130.228 234.87 130.13 234.985 130.121C234.996 130.121 235.017 130.117 235.049 130.113C236.339 129.952 239.155 129.888 243.53 131.293C243.639 131.327 243.699 131.445 243.664 131.554C243.636 131.642 243.555 131.699 243.466 131.699Z" fill="black"/>
<path d="M227.572 144.395C227.484 144.395 227.401 144.338 227.373 144.25C227.339 144.141 227.399 144.023 227.508 143.989C234.181 141.864 236.899 135.528 236.925 135.464C236.971 135.357 237.093 135.308 237.198 135.351C237.303 135.396 237.354 135.518 237.311 135.623C237.282 135.689 234.496 142.2 227.636 144.385C227.613 144.391 227.593 144.395 227.572 144.395Z" fill="black"/>
<path d="M278.147 259.455C273.482 248.576 268.613 238.135 266.505 236.591C261.899 233.211 231.489 232.903 231.489 232.903C231.489 232.903 209.372 231.752 197.699 233.788C197.699 233.788 184.798 234.286 178.347 247.648C176.694 251.073 174.828 255.206 172.968 259.455H278.147Z" fill="#F75553"/>
<path d="M191.808 259.527L191.199 259.386L194.079 246.878L194.688 247.019L191.808 259.527Z" fill="#21111D"/>
<path d="M258.664 259.527L255.784 247.019L256.393 246.878L259.273 259.386L258.664 259.527Z" fill="#21111D"/>
<path d="M225.921 244.194C222.331 244.216 219.457 240.202 219.62 235.389L220.043 222.864H231.378L232.145 235.06C232.453 239.959 229.584 244.169 225.921 244.194Z" fill="#FE9F73"/>
<path d="M219.881 227.645C221.886 232.58 230.735 232.176 231.658 227.318L231.378 222.864H220.043L219.881 227.645Z" fill="#F07162"/>
<path d="M234.269 203.896C233.72 202.799 233.005 202.067 232.306 201.576C230.884 200.923 228.556 200.072 225.588 199.743H225.445H225.361H225.218C222.25 200.072 219.922 200.923 218.5 201.576C217.802 202.067 217.086 202.799 216.537 203.896C216.276 205.922 215.957 209.658 215.897 213.391C215.844 216.746 216.744 220.062 218.594 222.776C219.988 224.822 221.991 226.654 224.763 226.924C224.957 226.928 225.156 226.928 225.361 226.93H225.402H225.445C225.65 226.928 225.849 226.928 226.043 226.924C228.816 226.654 230.818 224.822 232.212 222.776C234.06 220.062 234.962 216.746 234.91 213.391C234.849 209.658 234.53 205.922 234.269 203.896Z" fill="#FE9F73"/>
<path d="M232.601 215.566C232.601 217.289 233.997 218.687 235.719 218.687C237.442 218.687 238.838 217.289 238.838 215.566C238.838 213.844 237.442 212.448 235.719 212.448C233.997 212.448 232.601 213.844 232.601 215.566Z" fill="#FE9F73"/>
<path d="M235.951 217.492C236.604 217.492 237.042 217 237.187 216.507C237.356 215.927 237.16 215.361 236.689 215.068C236.014 214.649 235.404 214.894 235.071 215.104C235.205 214.772 235.41 214.529 235.68 214.379C236.292 214.045 237.046 214.289 237.053 214.293C237.106 214.309 237.162 214.281 237.179 214.229C237.198 214.176 237.17 214.12 237.117 214.103C237.083 214.092 236.272 213.827 235.584 214.204C235.188 214.422 234.917 214.807 234.782 215.348L234.696 215.696L234.949 215.444C234.981 215.414 235.716 214.698 236.584 215.237C237.063 215.534 237.104 216.077 236.995 216.451C236.88 216.844 236.533 217.298 235.934 217.291C235.881 217.291 235.834 217.334 235.834 217.39C235.832 217.445 235.877 217.49 235.932 217.492H235.951Z" fill="#F07162"/>
<path d="M217.929 215.566C217.929 217.289 216.532 218.687 214.809 218.687C213.086 218.687 211.691 217.289 211.691 215.566C211.691 213.844 213.086 212.448 214.809 212.448C216.532 212.448 217.929 213.844 217.929 215.566Z" fill="#FE9F73"/>
<path d="M214.578 217.492C213.924 217.492 213.487 217 213.342 216.507C213.173 215.927 213.368 215.361 213.84 215.068C214.514 214.649 215.125 214.894 215.457 215.104C215.324 214.772 215.119 214.529 214.849 214.379C214.236 214.045 213.483 214.289 213.475 214.293C213.423 214.309 213.366 214.281 213.349 214.229C213.331 214.176 213.359 214.12 213.411 214.103C213.447 214.092 214.257 213.827 214.944 214.204C215.341 214.422 215.611 214.807 215.746 215.348L215.833 215.696L215.579 215.444C215.547 215.414 214.813 214.698 213.945 215.237C213.466 215.534 213.425 216.077 213.534 216.451C213.65 216.844 213.996 217.298 214.595 217.291C214.648 217.291 214.694 217.334 214.696 217.39C214.696 217.445 214.651 217.49 214.597 217.492H214.578Z" fill="#F07162"/>
<path d="M222.522 213.58C222.522 213.934 222.237 214.217 221.886 214.217C221.534 214.217 221.249 213.934 221.249 213.58C221.249 213.229 221.534 212.944 221.886 212.944C222.237 212.944 222.522 213.229 222.522 213.58Z" fill="black"/>
<path d="M229.092 213.704C229.092 214.058 229.377 214.341 229.729 214.341C230.08 214.341 230.366 214.058 230.366 213.704C230.366 213.353 230.08 213.068 229.729 213.068C229.377 213.068 229.092 213.353 229.092 213.704Z" fill="black"/>
<path d="M232.357 212.602C232.238 212.602 232.12 212.56 232.022 212.478C230.533 211.213 228.372 211.914 228.35 211.921C228.079 212.012 227.784 211.867 227.694 211.596C227.602 211.324 227.747 211.031 228.017 210.939C228.128 210.901 230.749 210.037 232.693 211.687C232.911 211.873 232.937 212.2 232.753 212.417C232.65 212.538 232.505 212.602 232.357 212.602Z" fill="black"/>
<path d="M219.374 212.551C219.224 212.551 219.073 212.485 218.97 212.359C218.79 212.136 218.825 211.809 219.047 211.63C221.031 210.028 223.631 210.956 223.74 210.995C224.008 211.095 224.145 211.392 224.048 211.66C223.95 211.929 223.651 212.066 223.385 211.968C223.362 211.961 221.22 211.208 219.699 212.436C219.603 212.513 219.488 212.551 219.374 212.551Z" fill="black"/>
<path d="M216.614 218.601C216.614 218.601 217.762 227.042 224.764 226.924L216.614 218.601Z" fill="#FE9F73"/>
<path d="M234.346 218.367C234.346 218.367 233.198 227.042 226.197 226.924L231.335 215.03L234.346 218.367Z" fill="#FE9F73"/>
<path d="M231.087 217.738L226.043 218.059L219.282 217.738C217.976 217.738 216.919 216.68 216.919 215.374V206.372C216.919 206.372 223.434 207.862 227.022 204.375L228.71 201.918L228.184 204.761C228.184 204.761 227.867 208.369 233.702 209.215L233.448 215.47C233.397 216.738 232.355 217.738 231.087 217.738ZM233.553 199.384L225.406 198.574V198.541L225.237 198.557L225.068 198.541V198.574L216.919 199.384C216.919 199.384 214.734 199.384 214.811 203.072C214.864 205.612 215.36 214.54 215.662 219.842C215.809 222.423 217.005 224.829 218.976 226.503C219.019 226.541 219.064 226.58 219.107 226.618C222.641 229.622 227.833 229.622 231.365 226.618C231.41 226.58 231.453 226.541 231.498 226.503C233.467 224.829 234.664 222.423 234.812 219.842C235.114 214.54 235.609 205.612 235.661 203.072C235.738 199.384 233.553 199.384 233.553 199.384Z" fill="black"/>
<path d="M226.528 218.217L226.513 218.215L224.114 217.993L224.647 212.226C224.655 212.14 224.732 212.078 224.816 212.085C224.903 212.093 224.966 212.168 224.957 212.254L224.454 217.711L226.541 217.905C226.627 217.912 226.691 217.988 226.682 218.074C226.674 218.155 226.606 218.217 226.528 218.217Z" fill="#F07162"/>
<path d="M229.728 199.005C228.327 198.655 219.457 194.701 215.08 195.929C210.703 197.158 213.774 209.754 215.158 210.714C216.543 211.674 216.225 202.226 216.348 202.149C216.47 202.072 224.763 202.687 224.763 202.687L229.728 199.005Z" fill="black"/>
<path d="M228.185 199.269C228.442 199.232 232.113 198.54 234.491 199.311C237.102 200.154 237.158 206.103 236.429 207.526C235.699 208.946 235.22 212.487 235.22 212.487C235.22 212.487 233.18 206.603 232.749 205.22C232.319 203.838 228.185 199.269 228.185 199.269Z" fill="black"/>
<path d="M223.381 219.753C223.441 219.742 227.24 219.659 227.24 219.659C227.24 219.659 226.761 221.23 225.35 221.264C223.937 221.299 223.381 219.753 223.381 219.753Z" fill="#FBFDFC"/>
<path d="M225.227 246.33C217.593 246.114 217.151 235.746 217.148 235.642L217.773 235.62C217.775 235.719 218.198 245.505 225.244 245.706L225.227 246.33Z" fill="#21111D"/>
<path d="M169.791 268.38H167.385V114.95H169.791V268.38Z" fill="#21111D"/>
<path d="M293.339 114.439H295.743V269.235H293.339V114.439Z" fill="#21111D"/>
<path d="M387.004 215.222C387.004 215.222 387.416 221.788 390.662 224.686C393.908 227.585 401.914 230.831 401.854 238.601C401.792 246.369 386.473 249.384 382.885 249.268C379.298 249.151 373.826 260.595 372.707 246.931C371.587 233.266 365.371 234.91 370.601 229.569C375.833 224.226 377.45 224.722 380.172 220.704C382.894 216.686 387.004 215.222 387.004 215.222Z" fill="#49263E"/>
<path d="M353.008 215.771L352.995 235.774L357.376 246.6C357.376 246.6 369.641 243.645 369.543 242.63C369.444 241.614 371.501 227.237 371.052 226.657C370.603 226.078 365.275 213.789 363.237 213.556C361.199 213.323 353.008 215.771 353.008 215.771Z" fill="#49263E"/>
<path d="M352.995 216.432C352.995 225.823 360.609 233.437 370 233.437C379.392 233.437 387.004 225.823 387.004 216.432C387.004 207.039 379.392 199.425 370 199.425C360.609 199.425 352.995 207.039 352.995 216.432Z" fill="#49263E"/>
<path d="M320.438 260.137C324.822 249.916 329.396 240.104 331.376 238.652C335.706 235.475 364.281 235.188 364.281 235.188C364.281 235.188 385.064 234.106 396.033 236.018C396.033 236.018 408.155 236.486 414.217 249.042C415.771 252.26 417.524 256.143 419.271 260.137H320.438Z" fill="#3F9896"/>
<path d="M401.55 260.207L398.843 248.454L399.452 248.313L402.159 260.068L401.55 260.207Z" fill="#21111D"/>
<path d="M338.763 260.207L338.154 260.068L340.861 248.313L341.47 248.454L338.763 260.207Z" fill="#21111D"/>
<path d="M369.513 245.796C372.887 245.818 375.586 242.044 375.434 237.521L375.038 225.753H364.386L363.665 237.213C363.376 241.817 366.071 245.773 369.513 245.796Z" fill="#FE9F73"/>
<path d="M375.19 230.245C373.306 234.882 364.988 234.502 364.122 229.939L364.386 225.753H375.038L375.19 230.245Z" fill="#F07162"/>
<path d="M361.668 207.93C362.183 206.898 362.855 206.211 363.513 205.75C364.85 205.134 367.037 204.336 369.827 204.026H369.96H370.039H370.172C372.962 204.336 375.149 205.134 376.486 205.75C377.144 206.211 377.816 206.898 378.331 207.93C378.577 209.833 378.876 213.344 378.932 216.851C378.983 220.003 378.136 223.12 376.398 225.671C375.089 227.592 373.206 229.313 370.601 229.569C370.42 229.571 370.231 229.573 370.039 229.573H370H369.96C369.769 229.573 369.579 229.571 369.398 229.569C366.793 229.313 364.91 227.592 363.601 225.671C361.863 223.12 361.016 220.003 361.067 216.851C361.123 213.344 361.424 209.833 361.668 207.93Z" fill="#FE9F73"/>
<path d="M363.237 218.895C363.237 220.514 361.926 221.827 360.306 221.827C358.687 221.827 357.375 220.514 357.375 218.895C357.375 217.277 358.687 215.964 360.306 215.964C361.926 215.964 363.237 217.277 363.237 218.895Z" fill="#FE9F73"/>
<path d="M360.088 220.704C359.474 220.704 359.063 220.241 358.927 219.779C358.768 219.235 358.952 218.703 359.395 218.427C360.028 218.034 360.603 218.263 360.915 218.461C360.789 218.149 360.597 217.92 360.342 217.781C359.769 217.465 359.059 217.694 359.053 217.698C359.002 217.713 358.95 217.687 358.933 217.638C358.918 217.589 358.944 217.536 358.993 217.52C359.025 217.508 359.788 217.26 360.432 217.615C360.806 217.82 361.059 218.183 361.187 218.692L361.268 219.019L361.029 218.78C360.999 218.752 360.31 218.081 359.495 218.587C359.044 218.866 359.004 219.376 359.108 219.727C359.217 220.097 359.542 220.523 360.103 220.516C360.154 220.516 360.199 220.557 360.199 220.608C360.199 220.66 360.158 220.704 360.107 220.704H360.088Z" fill="#F07162"/>
<path d="M377.024 218.895C377.024 220.514 378.337 221.827 379.954 221.827C381.574 221.827 382.885 220.514 382.885 218.895C382.885 217.277 381.574 215.964 379.954 215.964C378.337 215.964 377.024 217.277 377.024 218.895Z" fill="#FE9F73"/>
<path d="M380.172 220.704C380.787 220.704 381.198 220.241 381.333 219.779C381.493 219.235 381.309 218.703 380.865 218.427C380.232 218.034 379.657 218.263 379.346 218.461C379.471 218.149 379.663 217.92 379.919 217.781C380.492 217.465 381.202 217.694 381.209 217.698C381.258 217.713 381.311 217.687 381.328 217.638C381.343 217.589 381.316 217.536 381.268 217.52C381.236 217.508 380.473 217.26 379.828 217.615C379.455 217.82 379.201 218.183 379.073 218.692L378.992 219.019L379.231 218.78C379.261 218.752 379.951 218.081 380.766 218.587C381.217 218.866 381.256 219.376 381.153 219.727C381.046 220.097 380.719 220.523 380.157 220.516C380.106 220.516 380.063 220.557 380.061 220.608C380.061 220.66 380.103 220.704 380.153 220.704H380.172Z" fill="#F07162"/>
<path d="M372.707 217.03C372.707 217.36 372.975 217.629 373.306 217.629C373.637 217.629 373.904 217.36 373.904 217.03C373.904 216.699 373.637 216.432 373.306 216.432C372.975 216.432 372.707 216.699 372.707 217.03Z" fill="black"/>
<path d="M366.534 217.146C366.534 217.476 366.265 217.745 365.934 217.745C365.604 217.745 365.337 217.476 365.337 217.146C365.337 216.815 365.604 216.549 365.934 216.549C366.265 216.549 366.534 216.815 366.534 217.146Z" fill="black"/>
<path d="M378.258 221.748C378.258 221.748 377.181 229.68 370.601 229.569L378.258 221.748Z" fill="#FE9F73"/>
<path d="M361.597 221.527C361.597 221.527 362.675 229.68 369.254 229.569L364.426 218.391L361.597 221.527Z" fill="#FE9F73"/>
<path d="M365.098 215.417C365.143 215.417 365.189 215.402 365.226 215.371C366.438 214.343 368.17 214.91 368.187 214.916C368.288 214.95 368.401 214.895 368.435 214.792C368.469 214.69 368.414 214.58 368.313 214.544C368.234 214.518 366.355 213.9 364.972 215.074C364.89 215.143 364.88 215.267 364.95 215.348C364.988 215.395 365.044 215.417 365.098 215.417Z" fill="#49263E"/>
<path d="M374.901 215.38C374.958 215.38 375.014 215.355 375.053 215.307C375.121 215.224 375.108 215.1 375.023 215.032C373.612 213.892 371.751 214.557 371.672 214.585C371.57 214.623 371.519 214.735 371.555 214.835C371.593 214.937 371.705 214.989 371.807 214.953C371.824 214.946 373.541 214.337 374.779 215.337C374.815 215.367 374.858 215.38 374.901 215.38Z" fill="#49263E"/>
<path d="M365.337 205.025C365.337 205.025 365.882 209.551 372.284 210.571C378.688 211.589 378.258 221.748 378.258 221.748C378.258 221.748 385.415 231.615 385.676 228.832C385.937 226.048 386.807 218.814 385.676 216.432C384.545 214.048 383.625 208.048 381.389 206.569C379.154 205.091 381.511 205.743 377.463 204.026C373.415 202.309 374.745 201.614 370.601 201.787C366.459 201.961 367.176 201.614 365.425 202.222C363.676 202.831 365.337 205.025 365.337 205.025Z" fill="#49263E"/>
<path d="M364.881 202.561C364.881 202.561 366.427 207.99 365.934 209.382C365.444 210.774 361.084 216.069 361.084 216.069C361.084 216.069 359.241 212.686 359.82 211.179C360.4 209.671 357.327 210.06 358.024 209.316C358.719 208.57 364.623 202.309 364.623 202.309L364.881 202.561Z" fill="#49263E"/>
<path d="M355.61 200.252C355.61 202.846 357.712 204.948 360.306 204.948C362.901 204.948 365.003 202.846 365.003 200.252C365.003 197.657 362.901 195.555 360.306 195.555C357.712 195.555 355.61 197.657 355.61 200.252Z" fill="#49263E"/>
<path d="M373.904 200.252C373.904 202.846 376.006 204.948 378.6 204.948C381.194 204.948 383.296 202.846 383.296 200.252C383.296 197.657 381.194 195.555 378.6 195.555C376.006 195.555 373.904 197.657 373.904 200.252Z" fill="#49263E"/>
<path d="M381.63 204.514C381.759 204.514 381.891 204.463 381.987 204.36C382.169 204.165 382.161 203.86 381.97 203.676L381.947 203.65C381.201 202.867 378.423 200.242 373.995 199.397C373.73 199.344 373.473 199.519 373.422 199.786C373.372 200.051 373.546 200.306 373.811 200.357C377.953 201.15 380.542 203.594 381.237 204.324C381.267 204.354 381.286 204.375 381.295 204.383C381.389 204.471 381.509 204.514 381.63 204.514Z" fill="#F75553"/>
<path d="M357.689 204.843C357.813 204.843 357.937 204.796 358.033 204.7C358.041 204.693 358.06 204.674 358.088 204.642C358.756 203.887 361.259 201.353 365.371 200.417C365.634 200.359 365.799 200.096 365.739 199.833C365.679 199.57 365.418 199.403 365.153 199.465C360.757 200.464 358.073 203.183 357.355 203.992L357.331 204.019C357.15 204.216 357.158 204.522 357.349 204.706C357.445 204.798 357.567 204.843 357.689 204.843Z" fill="#F75553"/>
<path d="M374.14 209.397H374.133C369.806 209.262 366.654 205.897 366.521 205.754C366.444 205.67 366.449 205.538 366.534 205.461C366.617 205.382 366.75 205.388 366.827 205.473C366.859 205.506 369.996 208.852 374.146 208.982C374.26 208.986 374.351 209.081 374.349 209.196C374.345 209.309 374.251 209.397 374.14 209.397Z" fill="#21111D"/>
<path d="M398.024 235.09C397.94 235.09 397.861 235.039 397.829 234.955C396.985 232.683 394.97 231.188 392.635 229.458C391.483 228.605 390.292 227.72 389.075 226.64C383.73 221.895 383.815 216.019 383.817 215.959C383.819 215.844 383.911 215.746 384.029 215.756C384.144 215.759 384.236 215.855 384.232 215.97C384.23 216.026 384.157 221.716 389.351 226.328C390.555 227.397 391.739 228.274 392.883 229.124C395.27 230.893 397.331 232.422 398.22 234.81C398.259 234.917 398.205 235.037 398.098 235.077C398.073 235.086 398.049 235.09 398.024 235.09Z" fill="#21111D"/>
<path d="M369.894 220.869C369.934 220.869 369.97 220.841 369.979 220.802C369.988 220.755 369.96 220.709 369.913 220.698C369.357 220.58 369.006 219.896 368.906 219.672C369.695 219.25 370.176 218.703 370.338 218.042C370.599 216.966 369.917 215.992 369.889 215.951C369.861 215.914 369.806 215.904 369.769 215.93C369.729 215.959 369.72 216.013 369.748 216.051C369.754 216.06 370.413 217.003 370.171 218.002C370.017 218.632 369.541 219.154 368.756 219.556L368.687 219.592L368.715 219.663C368.732 219.706 369.124 220.706 369.878 220.867L369.894 220.869Z" fill="#F07162"/>
<path d="M371.303 222.738C371.58 222.738 371.839 222.676 372.077 222.552C372.908 222.122 373.206 221.104 373.22 221.061C373.235 221.01 373.204 220.955 373.152 220.94C373.099 220.924 373.047 220.955 373.032 221.008C373.028 221.017 372.742 221.989 371.987 222.379C371.593 222.582 371.138 222.596 370.635 222.421C370.582 222.402 370.528 222.43 370.509 222.481C370.492 222.532 370.518 222.588 370.569 222.605C370.824 222.695 371.07 222.738 371.303 222.738Z" fill="#F07162"/>
<path d="M352.726 243.979L350.626 240.5L351.16 240.177L353.262 243.656L352.726 243.979Z" fill="#21111D"/>
<path d="M352.719 247.658L349.805 242.227L350.355 241.932L353.269 247.363L352.719 247.658Z" fill="#21111D"/>
<path d="M371.737 218.452C371.616 218.452 371.616 218.265 371.737 218.265C371.857 218.265 371.857 218.452 371.737 218.452Z" fill="#F07162"/>
<path d="M372.541 219.124C372.421 219.124 372.421 218.938 372.541 218.938C372.661 218.938 372.661 219.124 372.541 219.124Z" fill="#F07162"/>
<path d="M371.303 219.603C371.183 219.603 371.181 219.417 371.303 219.417C371.423 219.417 371.423 219.603 371.303 219.603Z" fill="#F07162"/>
<path d="M373.737 218.604C373.618 218.604 373.618 218.417 373.737 218.417C373.857 218.417 373.857 218.604 373.737 218.604Z" fill="#F07162"/>
<path d="M375.041 219.646C374.921 219.646 374.921 219.46 375.041 219.46C375.161 219.46 375.161 219.646 375.041 219.646Z" fill="#F07162"/>
<path d="M375.541 218.147C375.421 218.147 375.421 217.961 375.541 217.961C375.661 217.961 375.661 218.147 375.541 218.147Z" fill="#F07162"/>
<path d="M368.041 218.299C367.921 218.299 367.92 218.111 368.041 218.111C368.162 218.111 368.162 218.299 368.041 218.299Z" fill="#F07162"/>
<path d="M366.976 219.56C366.857 219.56 366.855 219.373 366.976 219.373C367.096 219.373 367.096 219.56 366.976 219.56Z" fill="#F07162"/>
<path d="M366.279 218.799C366.159 218.799 366.159 218.612 366.279 218.612C366.399 218.612 366.399 218.799 366.279 218.799Z" fill="#F07162"/>
<path d="M365.671 219.299C365.551 219.299 365.551 219.112 365.671 219.112C365.791 219.112 365.791 219.299 365.671 219.299Z" fill="#F07162"/>
<path d="M364.367 218.147C364.247 218.147 364.247 217.961 364.367 217.961C364.487 217.961 364.487 218.147 364.367 218.147Z" fill="#F07162"/>
<path d="M363.626 219.473H363.606L363.57 219.464L363.54 219.444L363.52 219.416L363.513 219.38L363.517 219.355L363.54 219.314L363.558 219.299C363.574 219.29 363.588 219.285 363.606 219.285H363.626L363.662 219.294L363.692 219.314L363.712 219.342L363.721 219.38L363.717 219.403L363.692 219.444L363.674 219.459C363.66 219.468 363.644 219.473 363.626 219.473Z" fill="#F07162"/>
<path d="M363.148 218.25L363.127 218.228L363.107 218.2L363.1 218.162L363.107 218.126L363.127 218.098L363.146 218.082C363.161 218.074 363.177 218.069 363.193 218.069L363.218 218.073L363.259 218.098L363.279 218.117L363.299 218.148L363.308 218.184L363.299 218.22L363.279 218.25L363.261 218.264C363.247 218.273 363.231 218.277 363.214 218.277L363.189 218.273L363.148 218.25Z" fill="#F07162"/>
<path d="M421.572 268.38H169.792V259.455H421.572V268.38Z" fill="#21111D"/>
<path d="M394.459 185.026C390.234 175.171 385.823 165.713 383.914 164.313C379.74 161.253 352.193 160.975 352.193 160.975C352.193 160.975 332.158 159.93 321.585 161.773C321.585 161.773 309.897 162.226 304.054 174.33C302.557 177.433 300.866 181.175 299.181 185.026H394.459Z" fill="#61A3C5"/>
<path d="M316.276 185.096L315.668 184.957L318.277 173.627L318.886 173.766L316.276 185.096Z" fill="#21111D"/>
<path d="M376.783 185.096L374.174 173.766L374.783 173.627L377.392 184.957L376.783 185.096Z" fill="#21111D"/>
<path d="M347.149 171.2C343.897 171.222 341.295 167.585 341.442 163.223L341.823 151.878H352.093L352.788 162.926C353.066 167.364 350.468 171.179 347.149 171.2Z" fill="#FE9F73"/>
<path d="M341.678 156.211C343.495 160.68 351.511 160.313 352.347 155.914L352.093 151.879H341.823L341.678 156.211Z" fill="#F07162"/>
<path d="M354.712 134.697C354.216 133.702 353.568 133.039 352.933 132.595C351.644 132.003 349.536 131.233 346.848 130.933H346.719H346.643H346.514C343.826 131.233 341.716 132.003 340.427 132.595C339.794 133.039 339.146 133.702 338.648 134.697C338.413 136.531 338.124 139.916 338.07 143.297C338.021 146.337 338.838 149.341 340.514 151.8C341.776 153.652 343.591 155.313 346.101 155.557C346.275 155.559 346.457 155.561 346.643 155.561V155.562L346.681 155.561L346.719 155.562V155.561C346.905 155.561 347.085 155.559 347.261 155.557C349.771 155.313 351.586 153.652 352.848 151.8C354.524 149.341 355.339 146.337 355.292 143.297C355.238 139.916 354.949 136.531 354.712 134.697Z" fill="#FE9F73"/>
<path d="M353.199 145.268C353.199 146.829 354.466 148.093 356.025 148.093C357.586 148.093 358.85 146.829 358.85 145.268C358.85 143.707 357.586 142.443 356.025 142.443C354.466 142.443 353.199 143.707 353.199 145.268Z" fill="#FE9F73"/>
<path d="M356.235 147.012C356.827 147.012 357.223 146.566 357.355 146.121C357.509 145.595 357.332 145.082 356.904 144.818C356.294 144.438 355.739 144.66 355.439 144.849C355.559 144.549 355.745 144.329 355.991 144.194C356.543 143.89 357.227 144.111 357.235 144.113C357.282 144.13 357.332 144.104 357.349 144.057C357.364 144.01 357.338 143.957 357.291 143.942C357.261 143.931 356.527 143.692 355.903 144.034C355.544 144.231 355.3 144.581 355.176 145.071L355.099 145.387L355.328 145.158C355.356 145.129 356.023 144.483 356.808 144.972C357.242 145.24 357.28 145.732 357.18 146.071C357.077 146.427 356.763 146.837 356.22 146.831C356.172 146.829 356.13 146.871 356.128 146.92C356.128 146.97 356.168 147.012 356.218 147.012H356.235Z" fill="#F07162"/>
<path d="M339.909 145.268C339.909 146.829 338.644 148.093 337.083 148.093C335.524 148.093 334.258 146.829 334.258 145.268C334.258 143.707 335.524 142.443 337.083 142.443C338.644 142.443 339.909 143.707 339.909 145.268Z" fill="#FE9F73"/>
<path d="M336.875 147.012C336.281 147.012 335.885 146.566 335.755 146.121C335.601 145.595 335.778 145.082 336.206 144.818C336.817 144.438 337.371 144.66 337.671 144.849C337.549 144.549 337.365 144.329 337.119 144.194C336.565 143.89 335.883 144.111 335.875 144.113C335.828 144.13 335.778 144.104 335.761 144.057C335.746 144.01 335.77 143.957 335.819 143.942C335.849 143.931 336.584 143.692 337.205 144.034C337.566 144.231 337.81 144.581 337.932 145.071L338.011 145.387L337.78 145.158C337.754 145.129 337.087 144.483 336.302 144.972C335.868 145.24 335.83 145.732 335.928 146.071C336.033 146.427 336.347 146.837 336.89 146.831C336.939 146.829 336.98 146.871 336.98 146.92C336.982 146.97 336.942 147.012 336.892 147.012H336.875Z" fill="#F07162"/>
<path d="M344.072 143.47C344.072 143.788 343.813 144.047 343.495 144.047C343.176 144.047 342.918 143.788 342.918 143.47C342.918 143.151 343.176 142.893 343.495 142.893C343.813 142.893 344.072 143.151 344.072 143.47Z" fill="black"/>
<path d="M350.023 143.583C350.023 143.9 350.28 144.16 350.6 144.16C350.917 144.16 351.177 143.9 351.177 143.583C351.177 143.264 350.917 143.006 350.6 143.006C350.28 143.006 350.023 143.264 350.023 143.583Z" fill="black"/>
<path d="M352.98 142.582C352.873 142.582 352.766 142.546 352.677 142.471C351.327 141.325 349.369 141.96 349.35 141.967C349.104 142.048 348.838 141.917 348.755 141.67C348.672 141.426 348.804 141.159 349.048 141.077C349.149 141.043 351.524 140.26 353.284 141.755C353.481 141.922 353.506 142.219 353.339 142.416C353.247 142.525 353.113 142.582 352.98 142.582Z" fill="black"/>
<path d="M341.218 142.537C341.083 142.537 340.946 142.477 340.854 142.362C340.69 142.161 340.722 141.864 340.923 141.703C342.721 140.252 345.075 141.092 345.174 141.128C345.417 141.218 345.542 141.487 345.452 141.731C345.364 141.973 345.093 142.099 344.851 142.009C344.832 142.003 342.892 141.319 341.513 142.433C341.427 142.503 341.323 142.537 341.218 142.537Z" fill="black"/>
<path d="M338.72 148.018C338.72 148.018 339.758 155.664 346.1 155.557L338.72 148.018Z" fill="#FE9F73"/>
<path d="M354.781 147.806C354.781 147.806 353.742 155.664 347.399 155.557L352.054 144.783L354.781 147.806Z" fill="#FE9F73"/>
<path d="M347.699 147.684L347.684 147.682L345.498 147.481L345.98 142.242C345.99 142.155 346.065 142.093 346.151 142.099C346.236 142.109 346.3 142.184 346.292 142.27L345.836 147.198L347.712 147.372C347.799 147.38 347.863 147.455 347.853 147.541C347.846 147.622 347.778 147.684 347.699 147.684Z" fill="#F07162"/>
<path d="M350.6 130.266C345.482 126.86 339.74 126.65 337.083 129.353C334.198 132.293 336.146 140.003 337.401 140.873C338.654 141.742 338.366 133.184 338.477 133.114C338.588 133.044 346.1 133.602 346.1 133.602L350.6 130.266Z" fill="black"/>
<path d="M350.023 130.329C350.256 130.294 353.581 129.668 355.734 130.365C358.099 131.129 357.798 136.393 357.49 137.806C356.848 140.757 356.41 142.442 356.41 142.442C356.41 142.442 354.547 136.972 354.158 135.719C353.769 134.468 350.023 130.329 350.023 130.329Z" fill="black"/>
<path d="M344.849 149.061C344.904 149.051 348.345 148.976 348.345 148.976C348.345 148.976 347.91 150.398 346.632 150.43C345.353 150.46 344.849 149.061 344.849 149.061Z" fill="#FBFDFC"/>
<path d="M346.521 173.165C339.578 172.967 339.176 163.55 339.174 163.454L339.798 163.434C339.802 163.522 340.183 172.361 346.538 172.541L346.521 173.165Z" fill="#21111D"/>
<path d="M335.877 136.98L336.632 142.478C336.632 142.478 337.638 142.411 338.083 142.625C338.083 142.625 338.051 134.908 339.909 134.571C341.768 134.237 344.663 135.969 346.596 134.962C348.529 133.957 349.489 131.404 349.489 131.404C349.489 131.404 349.403 134.461 351.09 135.466C352.777 136.473 354.496 142.894 354.496 142.894C354.496 142.894 355.121 142.516 355.574 142.478C355.574 142.478 354.511 134.795 354.287 134.348C354.064 133.901 349.42 130.469 349.42 130.469C349.42 130.469 347.072 130.328 345.482 130.215C343.891 130.1 340.733 129.881 339.909 130.215C339.086 130.548 337.352 130.437 337.352 131.498C337.352 132.56 336.591 132.336 337.083 133.566C337.576 134.795 335.877 136.98 335.877 136.98Z" fill="black"/>
<path d="M348.804 130.038L349.133 129.352C349.133 129.352 350.354 130.172 353.2 130.038C356.047 129.905 356.089 138.736 356.025 138.903C355.963 139.07 356.41 142.442 356.41 142.442C356.41 142.442 355.57 142.243 354.496 142.893C354.496 142.893 353.17 134.879 353 134.237C352.833 133.594 348.804 130.038 348.804 130.038Z" fill="black"/>
<path d="M168.038 186.717V184.31H421.044V186.717H168.038Z" fill="#21111D"/>
<path d="M341.182 225.8H306.28C304.31 225.8 302.713 224.204 302.713 222.235V204.847C302.713 202.876 304.31 201.279 306.28 201.279H341.182C343.151 201.279 344.748 202.876 344.748 204.847V222.235C344.748 224.204 343.151 225.8 341.182 225.8Z" fill="#F3FFFE"/>
<path d="M343.91 215.521L349.221 222.077L341.56 219.31L343.91 215.521Z" fill="#F3FFFE"/>
<path d="M369.795 150.832H411.922C413.891 150.832 415.488 149.235 415.488 147.267V125.663C415.488 123.694 413.891 122.097 411.922 122.097H369.795C367.824 122.097 366.227 123.694 366.227 125.663V147.267C366.227 149.235 367.824 150.832 369.795 150.832Z" fill="#F3FFFE"/>
<path d="M127.777 148.603C121.931 148.603 117.192 143.863 117.192 138.017C117.192 132.173 121.931 127.433 127.777 127.433C133.623 127.433 138.362 132.173 138.362 138.017C138.362 143.863 133.623 148.603 127.777 148.603Z" fill="#AAD1E2"/>
<path d="M127.777 180.499C121.931 180.499 117.192 175.759 117.192 169.913C117.192 164.067 121.931 159.327 127.777 159.327C133.623 159.327 138.362 164.067 138.362 169.913C138.362 175.759 133.623 180.499 127.777 180.499Z" fill="#AAD1E2"/>
<path d="M127.777 212.395C121.931 212.395 117.192 207.655 117.192 201.809C117.192 195.963 121.931 191.224 127.777 191.224C133.623 191.224 138.362 195.963 138.362 201.809C138.362 207.655 133.623 212.395 127.777 212.395Z" fill="#AAD1E2"/>
<path d="M127.777 244.289C121.931 244.289 117.192 239.55 117.192 233.704C117.192 227.859 121.931 223.12 127.777 223.12C133.623 223.12 138.362 227.859 138.362 233.704C138.362 239.55 133.623 244.289 127.777 244.289Z" fill="#AAD1E2"/>
<path d="M161.833 142.651H140.826C140.423 142.651 140.097 142.324 140.097 141.922C140.097 141.52 140.423 141.194 140.826 141.194H161.833C162.235 141.194 162.561 141.52 162.561 141.922C162.561 142.324 162.235 142.651 161.833 142.651Z" fill="#AAD1E2"/>
<path d="M155.54 137.757H140.826C140.423 137.757 140.097 137.43 140.097 137.028C140.097 136.626 140.423 136.3 140.826 136.3H155.54C155.942 136.3 156.269 136.626 156.269 137.028C156.269 137.43 155.942 137.757 155.54 137.757Z" fill="#AAD1E2"/>
<path d="M161.833 173.582H140.826C140.423 173.582 140.097 173.257 140.097 172.853C140.097 172.451 140.423 172.126 140.826 172.126H161.833C162.235 172.126 162.561 172.451 162.561 172.853C162.561 173.257 162.235 173.582 161.833 173.582Z" fill="#AAD1E2"/>
<path d="M155.54 168.688H140.826C140.423 168.688 140.097 168.363 140.097 167.959C140.097 167.557 140.423 167.232 140.826 167.232H155.54C155.942 167.232 156.269 167.557 156.269 167.959C156.269 168.363 155.942 168.688 155.54 168.688Z" fill="#AAD1E2"/>
<path d="M161.833 204.514H140.826C140.423 204.514 140.097 204.187 140.097 203.785C140.097 203.383 140.423 203.056 140.826 203.056H161.833C162.235 203.056 162.561 203.383 162.561 203.785C162.561 204.187 162.235 204.514 161.833 204.514Z" fill="#AAD1E2"/>
<path d="M155.54 199.621H140.826C140.423 199.621 140.097 199.294 140.097 198.892C140.097 198.488 140.423 198.163 140.826 198.163H155.54C155.942 198.163 156.269 198.488 156.269 198.892C156.269 199.294 155.942 199.621 155.54 199.621Z" fill="#AAD1E2"/>
<path d="M161.833 235.445H140.826C140.423 235.445 140.097 235.118 140.097 234.716C140.097 234.314 140.423 233.987 140.826 233.987H161.833C162.235 233.987 162.561 234.314 162.561 234.716C162.561 235.118 162.235 235.445 161.833 235.445Z" fill="#AAD1E2"/>
<path d="M155.54 230.551H140.826C140.423 230.551 140.097 230.224 140.097 229.822C140.097 229.42 140.423 229.094 140.826 229.094H155.54C155.942 229.094 156.269 229.42 156.269 229.822C156.269 230.224 155.942 230.551 155.54 230.551Z" fill="#AAD1E2"/>
<path d="M247.335 207.447L242.157 211.587L248.503 210.749L247.335 207.447Z" fill="#F3FFFE"/>
<path d="M286.225 218.423H249.794C247.825 218.423 246.228 216.827 246.228 214.858V196.577C246.228 194.609 247.825 193.012 249.794 193.012H286.225C288.195 193.012 289.792 194.609 289.792 196.577V214.858C289.792 216.827 288.195 218.423 286.225 218.423Z" fill="#F3FFFE"/>
<path d="M216.87 136.489L222.047 140.63L215.701 139.792L216.87 136.489Z" fill="#F3FFFE"/>
<path d="M177.979 147.468H214.409C216.38 147.468 217.976 145.869 217.976 143.9V125.62C217.976 123.651 216.38 122.055 214.409 122.055H177.979C176.009 122.055 174.412 123.651 174.412 125.62V143.9C174.412 145.869 176.009 147.468 177.979 147.468Z" fill="#F3FFFE"/>
<path d="M367.982 134.838L361.82 139.388L369.184 138.703L367.982 134.838Z" fill="#F3FFFE"/>
<path d="M144.094 234.831C144.094 234.831 141.822 203.156 129.526 209.305C117.23 215.451 107.206 255.814 105.87 257.019C104.533 258.221 104.934 295.108 104.934 295.108L119.235 287.893C119.235 287.893 123.04 199.722 144.094 234.831Z" fill="#258D8C"/>
<path d="M130.314 169.248C130.314 169.248 102.762 193.9 95.2443 236.168C87.7265 278.436 111.483 290.876 111.483 290.876C111.483 290.876 114.864 202.001 130.314 169.248Z" fill="#7FC6A6"/>
<path d="M79.206 296.579C79.206 296.579 74.595 206.6 51.3397 167.589C51.3397 167.589 92.1672 191.947 105.705 255.88C106.467 259.48 106.919 263.479 107.496 267.332C108.096 271.341 108.454 274.891 108.363 278.434C108.201 284.694 107.333 290.074 107.077 294.028C104.872 328.188 79.206 296.579 79.206 296.579Z" fill="#258D8C"/>
<path d="M79.9941 258.371C78.4118 245.542 73.541 233.315 65.713 223.028C60.0581 215.598 53.5115 209.953 48.3993 213.982C37.0389 222.936 34.7667 278.536 34.7667 278.536C34.7667 278.536 47.5974 240.044 53.2107 242.583C58.8241 245.123 64.0366 297.381 64.0366 297.381L85.02 299.117L79.9941 258.371Z" fill="#7FC6A6"/>
<path d="M108.615 293.438C109.476 273.794 107.012 254.939 101.292 237.399C96.715 223.364 90.0553 210.135 81.4977 198.08C66.9241 177.549 51.6784 167.405 51.526 167.306L51.1531 167.873C51.3045 167.972 66.4614 178.062 80.9613 198.497C94.339 217.353 109.878 249.123 107.936 293.408L108.615 293.438Z" fill="#21111D"/>
<path d="M111.822 290.887C111.831 290.666 112.699 268.376 115.443 242.375C117.973 218.395 122.66 186.268 130.621 169.394L130.007 169.103C122.005 186.065 117.303 218.275 114.767 242.307C112.021 268.331 111.152 290.639 111.144 290.863L111.822 290.887Z" fill="#21111D"/>
<path d="M119.574 287.908C119.58 287.763 120.226 273.272 122.356 258.587C125.156 239.279 129.202 228.415 134.058 227.17C136.925 226.435 140.204 229.073 143.804 235.007L144.385 234.656C140.611 228.434 137.08 225.695 133.889 226.512C128.673 227.85 124.566 238.61 121.683 258.495C119.549 273.212 118.902 287.733 118.896 287.878L119.574 287.908Z" fill="#21111D"/>
<path d="M84.683 299.161L85.3571 299.076L80.3311 258.33C78.7274 245.326 73.7659 233.05 65.9832 222.823C61.0553 216.348 56.6782 212.827 52.9737 212.356C51.2243 212.134 49.6148 212.59 48.1891 213.716C43.4059 217.486 39.6366 229.55 36.9863 249.572C35.0188 264.435 34.4331 278.384 34.4275 278.523L35.106 278.549C35.1287 277.995 37.5008 223.005 48.6094 214.249C49.887 213.242 51.3265 212.833 52.888 213.03C56.4053 213.477 60.6294 216.909 65.4427 223.234C73.1527 233.366 78.068 245.529 79.6571 258.413L84.683 299.161Z" fill="#21111D"/>
<path d="M66.6752 257.766L67.2786 257.454L62.8681 248.911L62.2647 249.221L66.6752 257.766Z" fill="#21111D"/>
<path d="M66.6795 263.002L67.2743 262.675L62.8638 254.672L62.269 254.999L66.6795 263.002Z" fill="#21111D"/>
<path d="M108.584 206.504L112.353 198.231L111.735 197.949L107.966 206.222L108.584 206.504Z" fill="#21111D"/>
<path d="M108.572 210.537L111.78 204.749L111.186 204.42L107.978 210.208L108.572 210.537Z" fill="#21111D"/>
<path d="M126.673 216.214L133.089 212.943L132.78 212.338L126.365 215.607L126.673 216.214Z" fill="#21111D"/>
<path d="M126.695 218.987L130.491 216.678L130.138 216.098L126.343 218.406L126.695 218.987Z" fill="#21111D"/>
<path d="M126.519 285.605C126.519 285.605 125.322 351.387 107.703 349.843H93.8476H91.6232H77.7682C60.1492 351.387 58.9518 285.605 58.9518 285.605C75.6247 283.085 109.846 283.085 126.519 285.605Z" fill="#F75553"/>
<path d="M84.7736 314.822L85.2665 314.356L66.012 294.028L65.5189 294.494L84.7736 314.822Z" fill="#21111D"/>
<path d="M81.7609 319.757L82.2732 319.312L71.6744 307.124L71.162 307.569L81.7609 319.757Z" fill="#21111D"/>
<path d="M163.882 296.277H145.449L150.065 350.635H178.014L182.137 296.277H163.882Z" fill="#61A3C5"/>
<path d="M177.265 286.741H150.321C148.755 286.741 147.485 288.022 147.485 289.602H163.704H163.882H180.102C180.102 288.022 178.831 286.741 177.265 286.741Z" fill="#21111D"/>
<path d="M181.731 291.069C181.552 290.215 180.803 289.602 179.937 289.602H163.882H163.705H147.65C146.783 289.602 146.035 290.215 145.856 291.069L144.333 298.338C144.092 299.487 144.962 300.569 146.128 300.569H163.705H163.882H181.459C182.624 300.569 183.494 299.487 183.253 298.338L181.731 291.069Z" fill="#44243D"/>
<path d="M146.352 312.966L147.547 335.062H180.039L181.234 312.966H163.906H163.68H146.352Z" fill="#FEC786"/>
<path d="M173.267 324.014C173.267 328.793 169.425 332.668 164.686 332.668C159.946 332.668 156.105 328.793 156.105 324.014C156.105 319.235 159.946 315.36 164.686 315.36C169.425 315.36 173.267 319.235 173.267 324.014Z" fill="#F3FFFE"/>
<path d="M180.039 335.374H147.251L146.04 312.983L146.664 312.949L147.843 334.75H180.039V335.374Z" fill="#21111D"/>
<path d="M172.717 307.383L172.174 307.075L175.31 301.541L175.853 301.849L172.717 307.383Z" fill="#21111D"/>
<path d="M173.241 310.565L172.701 310.25L175.538 305.377L176.078 305.691L173.241 310.565Z" fill="#21111D"/>
<path d="M361.604 334.28H453.222V316.86H361.604V334.28Z" fill="#F75553"/>
<path d="M378.211 334.28H371.953V316.861H378.211V334.28Z" fill="#E24444"/>
<path d="M443.362 334.28H437.104V316.861H443.362V334.28Z" fill="#E24444"/>
<path d="M420.419 325.483L419.879 324.448L426.971 320.758L427.508 321.793L420.419 325.483Z" fill="#21111D"/>
<path d="M425 327.012L424.427 325.996L431.923 321.786L432.494 322.804L425 327.012Z" fill="#21111D"/>
<path d="M323.978 349.781H444.068V334.28H323.978V349.781Z" fill="#61A3C5"/>
<path d="M337.543 349.781H345.745V334.28H337.543V349.781Z" fill="#256898"/>
<path d="M424.824 349.781H433.028V334.28H424.824V349.781Z" fill="#256898"/>
<path d="M349.527 344.239L348.988 342.804L356.079 337.69L356.618 339.125L349.527 344.239Z" fill="#21111D"/>
<path d="M354.109 346.358L353.538 344.949L361.031 339.116L361.604 340.526L354.109 346.358Z" fill="#21111D"/>
<path d="M459.45 351.197H38.4964V349.871H459.45V351.197Z" fill="#21111D"/>
</g>
<defs>
<clipPath id="clip0_31_2547">
<rect width="526" height="375.714" fill="white"/>
</clipPath>
</defs>
</svg>
